<svg width="27" height="26" viewBox="0 0 27 26" fill="none" xmlns="http://www.w3.org/2000/svg">
<path d="M25.4849 15.5702L26.9629 7.37934C27.0232 7.04481 27.0099 6.701 26.9238 6.37222C26.8378 6.04344 26.6812 5.73773 26.4649 5.47669C26.2487 5.21564 25.9783 5.00565 25.6727 4.86155C25.367 4.71745 25.0337 4.64277 24.6963 4.64277H5.76076L5.26721 1.90621C5.17092 1.37117 4.89122 0.887202 4.47692 0.538803C4.06262 0.190404 3.54006 -0.000293992 3.00045 3.40203e-07H1.38217C1.01559 3.40203e-07 0.664034 0.146745 0.404827 0.407951C0.145621 0.669158 0 1.02343 0 1.39283C0 1.76223 0.145621 2.11651 0.404827 2.37771C0.664034 2.63892 1.01559 2.78566 1.38217 2.78566H2.6161L5.62277 19.4506C5.63659 19.5266 5.65456 19.6007 5.67518 19.6738C5.22223 20.1355 4.89737 20.7088 4.73301 21.3366C4.56865 21.9643 4.57055 22.6246 4.73851 23.2514C4.90646 23.8781 5.23461 24.4496 5.6902 24.9087C6.14578 25.3677 6.71288 25.6984 7.33489 25.8676C7.9569 26.0368 8.61206 26.0386 9.235 25.8729C9.85795 25.7073 10.4269 25.3798 10.885 24.9234C11.3432 24.4669 11.6745 23.8973 11.8459 23.2715C12.0174 22.6456 12.023 21.9854 11.8621 21.3568H18.5456C18.3534 22.1068 18.3987 22.8987 18.6751 23.6215C18.9516 24.3443 19.4455 24.9619 20.0875 25.3879C20.7296 25.8139 21.4877 26.027 22.2559 25.9973C23.0241 25.9675 23.7638 25.6965 24.3716 25.2222C24.9793 24.7478 25.4247 24.0939 25.6454 23.3518C25.866 22.6097 25.851 21.8167 25.6022 21.0837C25.3535 20.3507 24.8836 19.7144 24.2582 19.2639C23.6329 18.8134 22.8834 18.5711 22.1147 18.5711H8.27377L7.93859 16.714H24.125C24.4487 16.714 24.7622 16.5995 25.0107 16.3905C25.2592 16.1815 25.4271 15.8912 25.485 15.5702H25.4849ZM9.21445 22.2853C9.21445 22.469 9.16041 22.6485 9.05916 22.8012C8.95791 22.9539 8.814 23.0729 8.64563 23.1432C8.47725 23.2135 8.29198 23.2319 8.11324 23.196C7.9345 23.1602 7.77031 23.0718 7.64144 22.9419C7.51258 22.812 7.42482 22.6466 7.38926 22.4665C7.35371 22.2863 7.37196 22.0996 7.4417 21.93C7.51144 21.7603 7.62955 21.6153 7.78108 21.5132C7.93261 21.4112 8.11076 21.3568 8.293 21.3568C8.53729 21.3571 8.77149 21.455 8.94423 21.6291C9.11697 21.8031 9.21414 22.0391 9.21445 22.2853ZM22.1147 23.2139C21.9324 23.2139 21.7543 23.1594 21.6027 23.0574C21.4512 22.9553 21.3331 22.8103 21.2634 22.6407C21.1936 22.471 21.1754 22.2843 21.2109 22.1042C21.2465 21.924 21.3342 21.7586 21.4631 21.6287C21.592 21.4989 21.7562 21.4104 21.9349 21.3746C22.1137 21.3388 22.2989 21.3572 22.4673 21.4274C22.6357 21.4977 22.7796 21.6167 22.8808 21.7694C22.9821 21.9221 23.0361 22.1017 23.0361 22.2853C23.0358 22.5315 22.9386 22.7675 22.7659 22.9416C22.5932 23.1156 22.359 23.2136 22.1147 23.2139ZM7.43606 13.9283L6.26352 7.42844H24.1442L22.9714 13.9283H7.43606Z" fill="#FDFBF8"/>
</svg>
