<svg width="30" height="30" viewBox="0 0 30 30" fill="none" xmlns="http://www.w3.org/2000/svg">
<path fill-rule="evenodd" clip-rule="evenodd" d="M15 0C6.71573 0 0 6.71573 0 15C0 23.2843 6.71573 30 15 30C23.2843 30 30 23.2843 30 15C30 11.0218 28.4196 7.20644 25.6066 4.3934C22.7936 1.58035 18.9782 0 15 0ZM27.0001 15.0002C25.2823 14.4844 23.4986 14.2216 21.7051 14.2202C20.6381 14.2344 19.5742 14.3398 18.5251 14.5352C18.1501 13.6202 17.7601 12.7352 17.3401 11.8502C19.8069 10.6176 22.0564 8.99131 24.0001 7.03516C25.947 9.23002 27.0153 12.0663 27.0001 15.0002ZM16.3051 9.87C18.5308 8.75354 20.5578 7.27889 22.3051 5.505C20.2127 3.88789 17.6446 3.00727 15.0001 3C14.0292 3.00392 13.0622 3.12479 12.1201 3.36C13.6847 5.41621 15.084 7.59301 16.3051 9.87ZM9.92995 4.14001C11.5557 6.23702 13.0056 8.46457 14.2649 10.8C11.6303 11.8289 8.82837 12.3628 5.99995 12.375C5.11271 12.3653 4.22656 12.3103 3.34495 12.21C4.19726 8.65797 6.62108 5.68755 9.92995 4.14001ZM2.99999 14.4301V15.0001C3.00694 17.9598 4.10743 20.8125 6.08999 23.0101C8.424 19.2144 12.0607 16.3989 16.32 15.0901C16.005 14.3101 15.645 13.5601 15.285 12.8102L15.285 12.8101L15.285 12.8101L15.285 12.8101C12.3336 14 9.18225 14.616 5.99999 14.6251C4.99694 14.6216 3.99505 14.5565 2.99999 14.4301ZM7.77027 24.5549C9.82781 20.9944 13.1724 18.3584 17.1153 17.1899C18.17 20.1044 18.919 23.1206 19.3503 26.1899C15.473 27.7153 11.0801 27.1008 7.77027 24.5699V24.5549ZM19.3352 16.68C20.2925 19.4165 21.0053 22.2326 21.4652 25.095C24.2194 23.3361 26.137 20.53 26.7752 17.325C25.1403 16.7804 23.4285 16.5018 21.7052 16.5C20.9121 16.5072 20.1203 16.5673 19.3352 16.68Z" fill="#07484A"/>
</svg>
