<svg width="35" height="35" viewBox="0 0 35 35" fill="none" xmlns="http://www.w3.org/2000/svg">
<path d="M24.7917 11.6665V10.2082C24.7917 6.18755 21.5207 2.9165 17.5 2.9165C13.4794 2.9165 10.2084 6.18755 10.2084 10.2082V14.5832H8.75004C7.1415 14.5832 5.83337 15.8913 5.83337 17.4998V29.1665C5.83337 30.775 7.1415 32.0832 8.75004 32.0832H26.25C27.8586 32.0832 29.1667 30.775 29.1667 29.1665V17.4998C29.1667 15.8913 27.8586 14.5832 26.25 14.5832H13.125V10.2082C13.125 7.79609 15.088 5.83317 17.5 5.83317C19.9121 5.83317 21.875 7.79609 21.875 10.2082V11.6665H24.7917Z" fill="black"/>
</svg>
