<svg width="28" height="28" viewBox="0 0 28 28" fill="none" xmlns="http://www.w3.org/2000/svg">
<path fill-rule="evenodd" clip-rule="evenodd" d="M3.11111 0.5H24.8889C26.6071 0.5 28 1.84315 28 3.5V24.5C28 26.1569 26.6071 27.5 24.8889 27.5H3.11111C1.39289 27.5 0 26.1569 0 24.5V3.5C0 1.84315 1.39289 0.5 3.11111 0.5ZM7.77777 23C8.20732 23 8.55554 22.6642 8.55554 22.25V11.75C8.55554 11.3358 8.20732 11 7.77777 11H5.44443C5.01488 11 4.66666 11.3358 4.66666 11.75V22.25C4.66666 22.6642 5.01488 23 5.44443 23H7.77777ZM6.61113 9.5C5.32247 9.5 4.2778 8.49264 4.2778 7.25C4.2778 6.00736 5.32247 5 6.61113 5C7.8998 5 8.94446 6.00736 8.94446 7.25C8.94446 8.49264 7.8998 9.5 6.61113 9.5ZM22.5556 23.0001C22.9851 23.0001 23.3333 22.6643 23.3333 22.2501V15.3501C23.3838 12.9662 21.5563 10.9318 19.1022 10.6401C17.3865 10.4889 15.724 11.2617 14.7778 12.6501V11.7501C14.7778 11.3358 14.4296 11.0001 14 11.0001H11.6667C11.2371 11.0001 10.8889 11.3358 10.8889 11.7501V22.2501C10.8889 22.6643 11.2371 23.0001 11.6667 23.0001H14C14.4296 23.0001 14.7778 22.6643 14.7778 22.2501V16.6251C14.7778 15.3824 15.8225 14.3751 17.1111 14.3751C18.3998 14.3751 19.4445 15.3824 19.4445 16.6251V22.2501C19.4445 22.6643 19.7927 23.0001 20.2222 23.0001H22.5556Z" fill="#07484A"/>
</svg>
