<svg width="40" height="40" viewBox="0 0 40 40" fill="none" xmlns="http://www.w3.org/2000/svg">
<path d="M38.711 13.777L26.9822 11.992L21.7391 0.861136C21.5959 0.55638 21.3603 0.309672 21.0692 0.159713C20.3394 -0.217604 19.4524 0.0968269 19.0875 0.861136L13.8444 11.992L2.11557 13.777C1.79221 13.8254 1.49656 13.985 1.27021 14.2269C0.996556 14.5214 0.845763 14.9176 0.85096 15.3285C0.856157 15.7394 1.01692 16.1314 1.29792 16.4182L9.78389 25.082L7.77904 37.3158C7.73202 37.6003 7.76209 37.893 7.86584 38.1606C7.9696 38.4282 8.14287 38.66 8.36602 38.8297C8.58918 38.9995 8.85328 39.1003 9.12838 39.1209C9.40348 39.1414 9.67858 39.0808 9.92247 38.946L20.4133 33.1701L30.9041 38.946C31.1905 39.1056 31.5231 39.1588 31.8418 39.1008C32.6456 38.9556 33.1861 38.1575 33.0475 37.3158L31.0427 25.082L39.5286 16.4182C39.7596 16.1812 39.9121 15.8716 39.9582 15.533C40.083 14.6864 39.5194 13.9028 38.711 13.777Z" fill="#FFC107"/>
</svg>
