<svg width="30" height="28" viewBox="0 0 30 28" fill="none" xmlns="http://www.w3.org/2000/svg">
<path d="M29.9561 4.41307C29.1821 5.50633 28.2464 6.45999 27.1853 7.23722C27.1853 7.52281 27.1853 7.80839 27.1853 8.10985C27.1938 13.2961 25.2373 18.269 21.7544 21.9138C18.2715 25.5586 13.5535 27.5704 8.65817 27.4981C5.82807 27.5081 3.03421 26.8239 0.495452 25.499C0.358562 25.4357 0.27027 25.2923 0.27079 25.1341V24.9596C0.27079 24.7317 0.445137 24.547 0.660204 24.547C3.44212 24.45 6.1248 23.4287 8.32867 21.6277C5.81064 21.574 3.54507 19.9946 2.50243 17.566C2.44977 17.4333 2.46617 17.2812 2.5457 17.1645C2.62524 17.0479 2.75642 16.9836 2.89185 16.9948C3.65713 17.0763 4.43006 17.0009 5.16842 16.7727C2.38873 16.1617 0.300111 13.7183 0.00119572 10.7277C-0.00942813 10.5843 0.0512914 10.4453 0.161419 10.3611C0.271546 10.2768 0.415162 10.2594 0.540384 10.3152C1.28633 10.6637 2.09158 10.8473 2.90682 10.8547C0.47116 9.16198 -0.580886 5.94244 0.345677 3.01686C0.441321 2.73258 0.671103 2.52257 0.950584 2.464C1.23006 2.40544 1.51802 2.50697 1.70863 2.73127C4.9954 6.43516 9.51149 8.64228 14.3047 8.88728C14.1819 8.36855 14.1215 7.83546 14.1249 7.30068C14.1698 4.49657 15.8084 1.99861 18.2737 0.976249C20.739 -0.0461082 23.543 0.609473 25.373 2.63607C26.6205 2.38445 27.8265 1.94079 28.9526 1.31919C29.0351 1.26466 29.1397 1.26466 29.2222 1.31919C29.2737 1.40658 29.2737 1.5174 29.2222 1.60478C28.6768 2.92738 27.7552 4.03668 26.5862 4.77799C27.6099 4.65229 28.6156 4.39659 29.5817 4.01642C29.663 3.95779 29.7699 3.95779 29.8513 4.01642C29.9194 4.04943 29.9704 4.11255 29.9906 4.18898C30.0108 4.2654 29.9982 4.34738 29.9561 4.41307Z" fill="#07484A"/>
</svg>
